<?xml version="1.0" encoding="UTF-8"?>
<svg id="Layer_1" data-name="Layer 1" xmlns="http://www.w3.org/2000/svg" xmlns:xlink="http://www.w3.org/1999/xlink" viewBox="0 0 1000 1000">
  <defs>
    <style>
      .cls-1 {
        fill: url(#linear-gradient);
      }
    </style>
    <linearGradient id="linear-gradient" x1="210.33" y1="217.45" x2="747.08" y2="735.88" gradientUnits="userSpaceOnUse">
      <stop offset=".11" stop-color="#a0001f"/>
      <stop offset=".55" stop-color="#ac2057"/>
      <stop offset="1" stop-color="#b73e8d"/>
    </linearGradient>
  </defs>
  <path class="cls-1" d="M872.7,483.48c-9.44-207.18-172.05-356.92-372.67-356.92S127,293.57,127,499.6c0,187.21,138.5,338.51,317.68,368.94,70.86,12.03,135.41,1.59,206.47-27.81-8.66-17.36-13.56-36.91-13.56-57.59,0-71.42,58.1-129.52,129.52-129.52,23.43,0,45.42,6.29,64.4,17.22,30.47-58.84,43.69-132.45,41.19-187.36ZM150.1,500.5c0-191.12,155.49-346.6,346.6-346.6,93.01,0,180.41,35.38,246.11,99.61,39.34,38.46,68.13,84.67,84.97,135.24-57.94-83.44-154.42-138.18-263.47-138.18-176.76,0-320.57,143.81-320.57,320.58,0,100.39,46.4,190.14,118.87,248.96-124.72-52.53-212.51-176-212.51-319.61ZM393.85,641.77c0-131.27,106.79-238.06,238.06-238.06,91.71,0,171.47,52.14,211.21,128.33-.8,7.3-1.83,14.62-3.1,21.94-37.46-33.3-86.75-53.56-140.7-53.56-116.91,0-212.03,95.12-212.03,212.03,0,50.16,17.52,96.3,46.75,132.65-7.62.81-15.29,1.38-23,1.69-70.09-41.48-117.2-117.84-117.2-205.02ZM767.11,625.38c-86.99,0-157.76,70.77-157.76,157.76,0,14.94,2.13,29.38,6.03,43.09-15.78,5.76-31.88,10.33-48.26,13.71-31.91-33.07-51.59-78.01-51.59-127.49,0-101.34,82.45-183.79,183.79-183.79,52.57,0,100.02,22.22,133.55,57.72-4.28,16.02-9.64,31.82-16.01,47.08-15.65-5.22-32.37-8.08-49.75-8.08ZM631.91,375.47c-146.84,0-266.3,119.46-266.3,266.3,0,80.6,36,152.95,92.76,201.82-108.97-42.52-186.38-148.61-186.38-272.45,0-161.19,131.14-292.34,292.33-292.34,128.37,0,237.68,83.18,276.87,198.47-48.8-61.95-124.47-101.8-209.28-101.8Z"/>
</svg>